<svg version="1.1" viewBox="0.0 0.0 960.0 540.0" fill="none" stroke="none" stroke-linecap="square" stroke-miterlimit="10" xmlns:xlink="http://www.w3.org/1999/xlink" xmlns="http://www.w3.org/2000/svg"><clipPath id="p.0"><path d="m0 0l960.0 0l0 540.0l-960.0 0l0 -540.0z" clip-rule="nonzero"/></clipPath><g clip-path="url(#p.0)"><path fill="#ffffff" d="m0 0l960.0 0l0 540.0l-960.0 0z" fill-rule="evenodd"/><path fill="#eeeeee" d="m8.551181 43.244095l942.8976 0l0 496.75592l-942.8976 0z" fill-rule="evenodd"/><path stroke="#efefef" stroke-width="1.0" stroke-linejoin="round" stroke-linecap="butt" d="m8.551181 43.244095l942.8976 0l0 496.75592l-942.8976 0z" fill-rule="evenodd"/><path fill="#efefef" d="m4.0420756 0l951.9159 0c1.0720215 0 2.1000977 0.42586032 2.8581543 1.1838965c0.75805664 0.75803626 1.1838989 1.786154 1.1838989 2.858179l0 20.209892c0 0.004419327 -0.0036010742 0.00799942 -0.0079956055 0.00799942l-959.992 -0.00799942l1.3780371E-18 0c-0.004418278 0 -0.008 -0.0035820007 -0.008 -0.00799942l0.008 -20.201893l0 0c0 -2.2323766 1.8096989 -4.0420756 4.0420756 -4.0420756z" fill-rule="evenodd"/><path stroke="#efefef" stroke-width="1.0" stroke-linejoin="round" stroke-linecap="butt" d="m4.0420756 0l951.9159 0c1.0720215 0 2.1000977 0.42586032 2.8581543 1.1838965c0.75805664 0.75803626 1.1838989 1.786154 1.1838989 2.858179l0 20.209892c0 0.004419327 -0.0036010742 0.00799942 -0.0079956055 0.00799942l-959.992 -0.00799942l1.3780371E-18 0c-0.004418278 0 -0.008 -0.0035820007 -0.008 -0.00799942l0.008 -20.201893l0 0c0 -2.2323766 1.8096989 -4.0420756 4.0420756 -4.0420756z" fill-rule="evenodd"/><path fill="#0090ff" d="m8.43832 42.199474l230.39369 0l0 67.27559l-230.39369 0z" fill-rule="evenodd"/><path stroke="#595959" stroke-width="1.0" stroke-linejoin="round" stroke-linecap="butt" d="m8.43832 42.199474l230.39369 0l0 67.27559l-230.39369 0z" fill-rule="evenodd"/><path fill="#0090ff" d="m245.14174 42.199474l230.39369 0l0 130.77165l-230.39369 0z" fill-rule="evenodd"/><path stroke="#595959" stroke-width="1.0" stroke-linejoin="round" stroke-linecap="butt" d="m245.14174 42.199474l230.39369 0l0 130.77165l-230.39369 0z" fill-rule="evenodd"/><path fill="#0090ff" d="m481.84515 42.199474l230.39368 0l0 67.27559l-230.39368 0z" fill-rule="evenodd"/><path stroke="#595959" stroke-width="1.0" stroke-linejoin="round" stroke-linecap="butt" d="m481.84515 42.199474l230.39368 0l0 67.27559l-230.39368 0z" fill-rule="evenodd"/><path fill="#000000" fill-opacity="0.0" d="m8.551181 41.207348l941.73224 0l0 265.25986l-941.73224 0z" fill-rule="evenodd"/><path stroke="#ff277f" stroke-width="3.0" stroke-linejoin="round" stroke-linecap="butt" d="m8.551181 41.207348l941.73224 0l0 265.25986l-941.73224 0z" fill-rule="evenodd"/><path fill="#ff277f" d="m8.551181 41.207348l85.51182 0l0 24.251972l-85.51182 0z" fill-rule="evenodd"/><path stroke="#ff277f" stroke-width="1.0" stroke-linejoin="round" stroke-linecap="butt" d="m8.551181 41.207348l85.51182 0l0 24.251972l-85.51182 0z" fill-rule="evenodd"/><path fill="#ffffff" d="m22.299892 58.13333l0 -9.546875l6.53125 0l0 1.625l-4.609375 0l0 2.25l3.984375 0l0 1.625l-3.984375 0l0 4.046875l-1.921875 0zm8.110107 -7.84375l0 -1.703125l1.828125 0l0 1.703125l-1.828125 0zm0 7.84375l0 -6.90625l1.828125 0l0 6.90625l-1.828125 0zm5.4529877 0l-1.828125 0l0 -6.90625l1.703125 0l0 0.984375q0.4375 -0.703125 0.78125 -0.921875q0.34375 -0.21875 0.796875 -0.21875q0.625 0 1.203125 0.34375l-0.5625 1.59375q-0.46875 -0.296875 -0.859375 -0.296875q-0.390625 0 -0.65625 0.21875q-0.265625 0.203125 -0.421875 0.765625q-0.15625 0.546875 -0.15625 2.296875l0 2.140625zm2.7961578 -1.96875l1.828125 -0.28125q0.125 0.53125 0.484375 0.8125q0.359375 0.265625 1.0 0.265625q0.703125 0 1.0625 -0.25q0.25 -0.1875 0.25 -0.484375q0 -0.21875 -0.140625 -0.359375q-0.125 -0.125 -0.609375 -0.234375q-2.203125 -0.484375 -2.796875 -0.890625q-0.828125 -0.5625 -0.828125 -1.5625q0 -0.890625 0.703125 -1.5q0.71875 -0.609375 2.203125 -0.609375q1.421875 0 2.109375 0.46875q0.703125 0.453125 0.953125 1.359375l-1.71875 0.3125q-0.109375 -0.40625 -0.421875 -0.609375q-0.3125 -0.21875 -0.890625 -0.21875q-0.71875 0 -1.03125 0.203125q-0.203125 0.140625 -0.203125 0.359375q0 0.203125 0.1875 0.34375q0.234375 0.171875 1.6875 0.515625q1.46875 0.328125 2.0625 0.8125q0.5625 0.484375 0.5625 1.359375q0 0.953125 -0.796875 1.640625q-0.78125 0.671875 -2.34375 0.671875q-1.40625 0 -2.234375 -0.5625q-0.828125 -0.578125 -1.078125 -1.5625zm11.224976 -4.9375l0 1.453125l-1.25 0l0 2.78125q0 0.84375 0.03125 0.984375q0.046875 0.140625 0.171875 0.234375q0.125 0.09375 0.3125 0.09375q0.25 0 0.734375 -0.171875l0.15625 1.421875q-0.640625 0.265625 -1.453125 0.265625q-0.484375 0 -0.890625 -0.15625q-0.390625 -0.171875 -0.578125 -0.4375q-0.1875 -0.265625 -0.265625 -0.71875q-0.046875 -0.3125 -0.046875 -1.28125l0 -3.015625l-0.84375 0l0 -1.453125l0.84375 0l0 -1.375l1.828125 -1.078125l0 2.453125l1.25 0zm5.0319824 6.90625l0 -9.46875l1.9375 0l0 7.859375l4.78125 0l0 1.609375l-6.71875 0zm8.078857 -7.84375l0 -1.703125l1.8281212 0l0 1.703125l-1.8281212 0zm0 7.84375l0 -6.90625l1.8281212 0l0 6.90625l-1.8281212 0zm9.999859 0l-1.828125 0l0 -3.53125q0 -1.109375 -0.125 -1.4375q-0.109375 -0.328125 -0.375 -0.515625q-0.265625 -0.1875 -0.640625 -0.1875q-0.46875 0 -0.859375 0.265625q-0.375 0.265625 -0.515625 0.703125q-0.140625 0.421875 -0.140625 1.578125l0 3.125l-1.828125 0l0 -6.90625l1.703125 0l0 1.015625q0.90625 -1.171875 2.28125 -1.171875q0.609375 0 1.109375 0.21875q0.5 0.21875 0.75 0.5625q0.265625 0.328125 0.359375 0.765625q0.109375 0.421875 0.109375 1.21875l0 4.296875zm5.8444824 -2.203125l1.828125 0.3125q-0.34375 1.0 -1.109375 1.53125q-0.765625 0.515625 -1.890625 0.515625q-1.8125 0 -2.671875 -1.171875q-0.6875 -0.953125 -0.6875 -2.390625q0 -1.71875 0.890625 -2.6875q0.90625 -0.96875 2.28125 -0.96875q1.546875 0 2.4375 1.015625q0.890625 1.015625 0.84375 3.125l-4.578125 0q0.015625 0.8125 0.4375 1.265625q0.421875 0.453125 1.0625 0.453125q0.421875 0 0.71875 -0.234375q0.296875 -0.234375 0.4375 -0.765625zm0.109375 -1.84375q-0.015625 -0.796875 -0.40625 -1.203125q-0.390625 -0.421875 -0.953125 -0.421875q-0.59375 0 -0.984375 0.4375q-0.390625 0.4375 -0.390625 1.1875l2.734375 0z" fill-rule="nonzero"/></g></svg>