<svg version="1.1" viewBox="0.0 0.0 960.0 540.0" fill="none" stroke="none" stroke-linecap="square" stroke-miterlimit="10" xmlns:xlink="http://www.w3.org/1999/xlink" xmlns="http://www.w3.org/2000/svg"><clipPath id="p.0"><path d="m0 0l960.0 0l0 540.0l-960.0 0l0 -540.0z" clip-rule="nonzero"/></clipPath><g clip-path="url(#p.0)"><path fill="#efefef" d="m0 0l960.0 0l0 540.0l-960.0 0z" fill-rule="evenodd"/><path fill="#a4c2f4" d="m16.485565 18.414698l231.43307 0l0 109.88976l-231.43307 0z" fill-rule="evenodd"/><path stroke="#a4c2f4" stroke-width="1.0" stroke-linejoin="round" stroke-linecap="butt" d="m16.485565 18.414698l231.43307 0l0 109.88976l-231.43307 0z" fill-rule="evenodd"/><path fill="#a4c2f4" d="m528.5486 18.414698l231.43304 0l0 109.88976l-231.43304 0z" fill-rule="evenodd"/><path stroke="#a4c2f4" stroke-width="1.0" stroke-linejoin="round" stroke-linecap="butt" d="m528.5486 18.414698l231.43304 0l0 109.88976l-231.43304 0z" fill-rule="evenodd"/><path fill="#a4c2f4" d="m272.51706 18.414698l231.43307 0l0 208.18896l-231.43307 0z" fill-rule="evenodd"/><path stroke="#a4c2f4" stroke-width="1.0" stroke-linejoin="round" stroke-linecap="butt" d="m272.51706 18.414698l231.43307 0l0 208.18896l-231.43307 0z" fill-rule="evenodd"/><path fill="#a4c2f4" d="m528.5486 344.4908l231.43304 0l0 109.88977l-231.43304 0z" fill-rule="evenodd"/><path stroke="#a4c2f4" stroke-width="1.0" stroke-linejoin="round" stroke-linecap="butt" d="m528.5486 344.4908l231.43304 0l0 109.88977l-231.43304 0z" fill-rule="evenodd"/><path fill="#a4c2f4" d="m16.485565 344.4908l231.43307 0l0 109.88977l-231.43307 0z" fill-rule="evenodd"/><path stroke="#a4c2f4" stroke-width="1.0" stroke-linejoin="round" stroke-linecap="butt" d="m16.485565 344.4908l231.43307 0l0 109.88977l-231.43307 0z" fill-rule="evenodd"/><path fill="#a4c2f4" d="m272.51706 344.4908l231.43307 0l0 109.88977l-231.43307 0z" fill-rule="evenodd"/><path stroke="#a4c2f4" stroke-width="1.0" stroke-linejoin="round" stroke-linecap="butt" d="m272.51706 344.4908l231.43307 0l0 109.88977l-231.43307 0z" fill-rule="evenodd"/></g></svg>